<?xml version="1.0" encoding="utf-8"?>
<!-- Generator: Adobe Illustrator 20.1.0, SVG Export Plug-In . SVG Version: 6.00 Build 0)  -->
<svg version="1.1"
	 id="svg2" inkscape:version="0.91 r13725" sodipodi:docname="aeris_logo_vector.svg" xmlns:cc="http://creativecommons.org/ns#" xmlns:dc="http://purl.org/dc/elements/1.1/" xmlns:inkscape="http://www.inkscape.org/namespaces/inkscape" xmlns:rdf="http://www.w3.org/1999/02/22-rdf-syntax-ns#" xmlns:sodipodi="http://sodipodi.sourceforge.net/DTD/sodipodi-0.dtd" xmlns:svg="http://www.w3.org/2000/svg"
	 xmlns="http://www.w3.org/2000/svg" xmlns:xlink="http://www.w3.org/1999/xlink" x="0px" y="0px" viewBox="0 0 374 373.8"
	 style="enable-background:new 0 0 374 373.8;" xml:space="preserve">
<style type="text/css">
	.st0{fill-rule:evenodd;clip-rule:evenodd;fill:#34508D;}
	.st1{opacity:0.55;fill-rule:evenodd;clip-rule:evenodd;fill:#34508D;}
</style>
<sodipodi:namedview  bordercolor="#666666" borderopacity="1.0" fit-margin-bottom="0" fit-margin-left="0" fit-margin-right="0" fit-margin-top="0" id="base" inkscape:current-layer="layer1" inkscape:cx="454.79126" inkscape:cy="63.695769" inkscape:document-units="px" inkscape:guide-bbox="true" inkscape:pageopacity="0.0" inkscape:pageshadow="2" inkscape:window-height="1017" inkscape:window-maximized="1" inkscape:window-width="1920" inkscape:window-x="-8" inkscape:window-y="-8" inkscape:zoom="0.70710678" pagecolor="#ffffff" showgrid="false" showguides="true">
	<sodipodi:guide  id="guide3668" orientation="0,1" position="311.55517,143.57451"></sodipodi:guide>
	<sodipodi:guide  id="guide3670" orientation="1,0" position="233.0805,182.58311"></sodipodi:guide>
	<sodipodi:guide  id="guide3672" orientation="0,1" position="241.19805,330.22861"></sodipodi:guide>
	<sodipodi:guide  id="guide3674" orientation="0,1" position="237.30896,240.24927"></sodipodi:guide>
</sodipodi:namedview>
<g>
	<path class="st0" d="M262.4,54.3c-24.8,0-50.6,0-75.3,0C144,119.7,57.8,251.3,57.4,251.2c-12.2-20.5-13.6-31.4-17.7-50.8
		C24.3,126.7,67.6,62.7,108.2,35c14.9-10.1,32.3-18.8,51.4-24.6c72.3-22.1,141.2,16.8,172.7,55.1c43.8,53.2,54.6,142.1,5.9,198.5
		c-11.1,12.9-32.6,24.8-59.4,21.4c-31-3.9-44.8-28.2-46.9-58.5c-1.4-20,3.1-42.6,8.2-63.8c4.6-23,9-45.3,13.7-68.3
		C256.4,81.5,259.8,67.5,262.4,54.3z"/>
	<path class="st1" d="M202.6,350.2c-98.2,0-180.1-78.1-180.1-176.4c0-63.3,34-120.4,84.4-153.1C45.4,51.6,2.4,116.1,2.4,188.3
		c0,101.1,84.3,181.5,185.4,181.5c69.7,0,130.3-40.2,161.2-98.3C317,318.7,263.3,350.2,202.6,350.2z"/>
</g>
</svg>
